<svg id="Layer_1" data-name="Layer 1" xmlns="http://www.w3.org/2000/svg" viewBox="0 0 284.15 344.13"><defs><style>.cls-1{fill:#7e8082;}.cls-2{fill:#5f626c;}.cls-3{fill:#57565a;}.cls-4{fill:#96a0aa;}.cls-5{fill:#8c949d;}.cls-6{fill:#7a8291;}.cls-7{fill:#4a4a51;}.cls-8{fill:#6b717a;}.cls-9{fill:#878a93;}.cls-10{fill:#757f8e;}.cls-11{fill:#64686e;}.cls-12{fill:#595a5a;}.cls-13{fill:#fff;}</style></defs><polygon class="cls-1" points="140.02 2.81 173.21 0 173.21 63.32 143.08 46.72 140.02 2.81"/><polygon class="cls-2" points="173.21 0 226.4 96.34 173.21 63.32 173.21 0"/><polygon class="cls-3" points="173.21 0 249.21 3.23 226.4 96.34 173.21 0"/><polygon class="cls-4" points="143.08 46.26 174.18 63.45 205.63 82.98 221.76 92.99 230.91 99.62 150.23 175.96 143.08 46.26"/><path class="cls-5" d="M294.32,293.74l7.15,129.71-2.13,118h-8.08s-19.15-53.11-59.32-114.72Z" transform="translate(-151.23 -247.49)"/><path class="cls-6" d="M231.94,426.77l-25.71,50.72,85,64S271.6,487.21,231.94,426.77Z" transform="translate(-151.23 -247.49)"/><polygon class="cls-7" points="171.48 155.86 170.4 287.02 168.83 287.02 156.4 170.13 171.48 155.86"/><polygon class="cls-8" points="171.48 155.86 224.93 105.28 170.4 287.02 171.48 155.86"/><polygon class="cls-9" points="224.93 105.28 239 266.43 187 285.49 170.4 287.02 224.93 105.28"/><polygon class="cls-10" points="224.93 105.28 255 266.43 239 266.43 224.93 105.28"/><polygon class="cls-11" points="143.08 46.26 93.67 151.63 79.62 181.41 55 230 93.43 258.93 87.17 287.02 80.7 287.02 34.57 185.85 143.08 46.26"/><polygon class="cls-12" points="34.57 185.85 24.87 214 80.7 287.02 34.57 185.85"/><path class="cls-13" d="M299.47,534.51h20.59s40.13-1.79,69,8.17c0,0,16.26,6,44.84,32.73a4.79,4.79,0,0,1,.73,6.09h0s6,18.12-275.1,5.86a29.74,29.74,0,0,1-6.84-2.63,3,3,0,0,1-.77-4.46c6.15-7.7,33.54-38.78,80-45.76h50l9.28,7h8.08" transform="translate(-151.23 -247.49)"/></svg>